<svg xmlns="http://www.w3.org/2000/svg"
 width="1200" height="482" viewBox="0 0 1200 482"
 role="img" aria-labelledby="title desc">
<title id="title">Davide Calò engineering stack</title>
<desc id="desc">A responsive two-by-two engineering stack grouped into systems, software, automation, and reliability. Each group uses its own coherent color.</desc>
<defs>
  <linearGradient id="stack-bg" x1="0" y1="0" x2="1" y2="1">
    <stop offset="0" stop-color="#F7FAFF"/>
    <stop offset="1" stop-color="#E9F1FF"/>
  </linearGradient>
  <radialGradient id="stack-glow-a">
    <stop offset="0" stop-color="#22D3EE" stop-opacity=".12"/>
    <stop offset="1" stop-color="#22D3EE" stop-opacity="0"/>
  </radialGradient>
  <radialGradient id="stack-glow-b">
    <stop offset="0" stop-color="#EC4899" stop-opacity=".10"/>
    <stop offset="1" stop-color="#EC4899" stop-opacity="0"/>
  </radialGradient>
</defs>
<style>
text{
  font-family:Inter,ui-sans-serif,system-ui,-apple-system,
  BlinkMacSystemFont,"Segoe UI",sans-serif
}
.group-title{
  font-size:15px;
  font-weight:850;
  letter-spacing:1.8px;
  fill:#0F172A
}
.group-index{
  font-size:12px;
  font-weight:800;
  letter-spacing:1px;
  fill:#64748B
}
.chip{
  font-size:12.7px;
  font-weight:690;
  fill:#42516A
}
.pulse{animation:stack-pulse 2.7s ease-in-out infinite alternate}
.twinkle{animation:stack-twinkle 4.3s ease-in-out infinite alternate}
@keyframes stack-pulse{
  from{opacity:.42}
  to{opacity:1;filter:drop-shadow(0 0 7px currentColor)}
}
@keyframes stack-twinkle{from{opacity:.12}to{opacity:.62}}
@media(prefers-reduced-motion:reduce){
  .pulse,.twinkle{animation:none!important}
}
</style>
<rect x="1" y="1" width="1198" height="480" rx="27"
      fill="url(#stack-bg)" stroke="#B8C8E4" stroke-width="2"/>
<circle cx="160" cy="470" r="210" fill="url(#stack-glow-a)"/>
<circle cx="1110" cy="20" r="220" fill="url(#stack-glow-b)"/>
<g><circle class="twinkle" cx="73" cy="35" r="1.0" fill="#0891B2" opacity=".28" style="animation-delay:-0.40s"/><circle class="twinkle" cx="265" cy="212" r="1.3" fill="#7C3AED" opacity=".28" style="animation-delay:-0.77s"/><circle class="twinkle" cx="516" cy="30" r="0.8" fill="#2563EB" opacity=".28" style="animation-delay:-1.14s"/><circle class="twinkle" cx="802" cy="227" r="1.1" fill="#DB2777" opacity=".28" style="animation-delay:-1.51s"/><circle class="twinkle" cx="1098" cy="54" r="1.4" fill="#7C3AED" opacity=".28" style="animation-delay:-1.88s"/><circle class="twinkle" cx="1160" cy="338" r="0.9" fill="#0891B2" opacity=".28" style="animation-delay:-2.25s"/><circle class="twinkle" cx="428" cy="432" r="1.2" fill="#DB2777" opacity=".28" style="animation-delay:-2.62s"/><circle class="twinkle" cx="45" cy="412" r="0.7" fill="#2563EB" opacity=".28" style="animation-delay:-2.99s"/><circle class="twinkle" cx="900" cy="32" r="0.8" fill="#0891B2" opacity=".28" style="animation-delay:-3.36s"/><circle class="twinkle" cx="673" cy="255" r="0.9" fill="#7C3AED" opacity=".28" style="animation-delay:-3.73s"/><circle class="twinkle" cx="337" cy="250" r="0.7" fill="#2563EB" opacity=".28" style="animation-delay:-4.10s"/><circle class="twinkle" cx="1114" cy="252" r="1.0" fill="#DB2777" opacity=".28" style="animation-delay:-4.47s"/></g>

            <g>
              <rect x="34" y="46" width="552" height="180" rx="23"
                    fill="#FFFFFF" stroke="#0891B2" stroke-width="1.8"/>
              <rect x="35" y="47" width="550" height="7" rx="3.5"
                    fill="#0891B2" opacity=".78"/>
              <circle class="pulse" cx="62" cy="84" r="6"
                      fill="#0891B2"/>
              <text x="80" y="90" class="group-title">SYSTEMS</text>
              <text x="554" y="89" text-anchor="end"
                    class="group-index">01</text>
              <rect x="58" y="124" width="224" height="34" rx="17" fill="#E2F8FC" stroke="#75C7D7" stroke-width="1.2"/><text x="170.0" y="146" text-anchor="middle" class="chip">C</text><rect x="320" y="124" width="224" height="34" rx="17" fill="#E2F8FC" stroke="#75C7D7" stroke-width="1.2"/><text x="432.0" y="146" text-anchor="middle" class="chip">C++</text><rect x="58" y="172" width="224" height="34" rx="17" fill="#E2F8FC" stroke="#75C7D7" stroke-width="1.2"/><text x="170.0" y="194" text-anchor="middle" class="chip">CMake</text><rect x="320" y="172" width="224" height="34" rx="17" fill="#E2F8FC" stroke="#75C7D7" stroke-width="1.2"/><text x="432.0" y="194" text-anchor="middle" class="chip">Binary protocols</text>
            </g>
            
            <g>
              <rect x="614" y="46" width="552" height="180" rx="23"
                    fill="#FFFFFF" stroke="#2563EB" stroke-width="1.8"/>
              <rect x="615" y="47" width="550" height="7" rx="3.5"
                    fill="#2563EB" opacity=".78"/>
              <circle class="pulse" cx="642" cy="84" r="6"
                      fill="#2563EB"/>
              <text x="660" y="90" class="group-title">SOFTWARE</text>
              <text x="1134" y="89" text-anchor="end"
                    class="group-index">02</text>
              <rect x="638" y="124" width="224" height="34" rx="17" fill="#E8F0FF" stroke="#91B0EF" stroke-width="1.2"/><text x="750.0" y="146" text-anchor="middle" class="chip">Python</text><rect x="900" y="124" width="224" height="34" rx="17" fill="#E8F0FF" stroke="#91B0EF" stroke-width="1.2"/><text x="1012.0" y="146" text-anchor="middle" class="chip">Java</text><rect x="638" y="172" width="224" height="34" rx="17" fill="#E8F0FF" stroke="#91B0EF" stroke-width="1.2"/><text x="750.0" y="194" text-anchor="middle" class="chip">Testing</text><rect x="900" y="172" width="224" height="34" rx="17" fill="#E8F0FF" stroke="#91B0EF" stroke-width="1.2"/><text x="1012.0" y="194" text-anchor="middle" class="chip">Packaging</text>
            </g>
            
            <g>
              <rect x="34" y="256" width="552" height="180" rx="23"
                    fill="#FFFFFF" stroke="#7C3AED" stroke-width="1.8"/>
              <rect x="35" y="257" width="550" height="7" rx="3.5"
                    fill="#7C3AED" opacity=".78"/>
              <circle class="pulse" cx="62" cy="294" r="6"
                      fill="#7C3AED"/>
              <text x="80" y="300" class="group-title">AUTOMATION</text>
              <text x="554" y="299" text-anchor="end"
                    class="group-index">03</text>
              <rect x="58" y="334" width="224" height="34" rx="17" fill="#F1EAFE" stroke="#B69AE9" stroke-width="1.2"/><text x="170.0" y="356" text-anchor="middle" class="chip">Industrial robotics</text><rect x="320" y="334" width="224" height="34" rx="17" fill="#F1EAFE" stroke="#B69AE9" stroke-width="1.2"/><text x="432.0" y="356" text-anchor="middle" class="chip">Git</text><rect x="58" y="382" width="224" height="34" rx="17" fill="#F1EAFE" stroke="#B69AE9" stroke-width="1.2"/><text x="170.0" y="404" text-anchor="middle" class="chip">Terraform</text>
            </g>
            
            <g>
              <rect x="614" y="256" width="552" height="180" rx="23"
                    fill="#FFFFFF" stroke="#DB2777" stroke-width="1.8"/>
              <rect x="615" y="257" width="550" height="7" rx="3.5"
                    fill="#DB2777" opacity=".78"/>
              <circle class="pulse" cx="642" cy="294" r="6"
                      fill="#DB2777"/>
              <text x="660" y="300" class="group-title">RELIABILITY</text>
              <text x="1134" y="299" text-anchor="end"
                    class="group-index">04</text>
              <rect x="638" y="334" width="224" height="34" rx="17" fill="#FCE8F2" stroke="#E8A0C0" stroke-width="1.2"/><text x="750.0" y="356" text-anchor="middle" class="chip">GitHub Actions</text><rect x="900" y="334" width="224" height="34" rx="17" fill="#FCE8F2" stroke="#E8A0C0" stroke-width="1.2"/><text x="1012.0" y="356" text-anchor="middle" class="chip">Datadog</text><rect x="638" y="382" width="224" height="34" rx="17" fill="#FCE8F2" stroke="#E8A0C0" stroke-width="1.2"/><text x="750.0" y="404" text-anchor="middle" class="chip">Networking</text>
            </g>
            
</svg>